<mxfile host="app.diagrams.net" modified="2024-03-08T05:52:01.198Z" agent="Mozilla/5.0 (Windows NT 10.0; Win64; x64) AppleWebKit/537.36 (KHTML, like Gecko) Chrome/122.0.0.0 Safari/537.36" etag="jnys3zK6M5nlzTsa3aL6" version="24.0.2" type="github">
  <diagram name="Page-1" id="2c0d36ab-eaac-3732-788b-9136903baeff">
    <mxGraphModel dx="3244.5" dy="720" grid="0" gridSize="10" guides="1" tooltips="1" connect="1" arrows="1" fold="1" page="1" pageScale="1.5" pageWidth="1169" pageHeight="827" background="none" math="0" shadow="0">
      <root>
        <mxCell id="0" />
        <mxCell id="1" parent="0" />
        <mxCell id="4MZ_cCC2QS6rHFRi-yMx-165" value="" style="fillColor=#12AAB5;strokeColor=none;opacity=30;" vertex="1" parent="1">
          <mxGeometry x="310.5" y="456.25" width="150" height="158.75" as="geometry" />
        </mxCell>
        <mxCell id="4MZ_cCC2QS6rHFRi-yMx-159" value="" style="fillColor=#F2931E;strokeColor=none;opacity=30;" vertex="1" parent="1">
          <mxGeometry x="310.5" y="1065" width="150" height="305" as="geometry" />
        </mxCell>
        <mxCell id="4MZ_cCC2QS6rHFRi-yMx-135" value="" style="fillColor=#12AAB5;strokeColor=none;opacity=30;" vertex="1" parent="1">
          <mxGeometry x="125.5" y="454" width="150" height="226.5" as="geometry" />
        </mxCell>
        <mxCell id="123" value="" style="fillColor=#AE4132;strokeColor=none;opacity=30;" parent="1" vertex="1">
          <mxGeometry x="747" y="175.50000000000003" width="210" height="99.99999999999994" as="geometry" />
        </mxCell>
        <mxCell id="119" value="" style="fillColor=#F2931E;strokeColor=none;opacity=30;" parent="1" vertex="1">
          <mxGeometry x="1235" y="718" width="150" height="270" as="geometry" />
        </mxCell>
        <mxCell id="118" value="" style="fillColor=#F2931E;strokeColor=none;opacity=30;" parent="1" vertex="1">
          <mxGeometry x="310.5" y="702" width="150" height="330" as="geometry" />
        </mxCell>
        <mxCell id="114" value="" style="fillColor=#10739E;strokeColor=none;opacity=30;" parent="1" vertex="1">
          <mxGeometry x="1235" y="998.0000000000001" width="150" height="80" as="geometry" />
        </mxCell>
        <mxCell id="113" value="" style="fillColor=#10739E;strokeColor=none;opacity=30;" parent="1" vertex="1">
          <mxGeometry x="885" y="728.0000000000001" width="329.99999999999994" height="80" as="geometry" />
        </mxCell>
        <mxCell id="111" value="" style="fillColor=#D9EAD3;strokeColor=none" parent="1" vertex="1">
          <mxGeometry x="-354" y="387" width="150" height="160" as="geometry" />
        </mxCell>
        <mxCell id="109" value="" style="fillColor=#12AAB5;strokeColor=none;opacity=30;" parent="1" vertex="1">
          <mxGeometry x="885" y="458" width="500" height="80" as="geometry" />
        </mxCell>
        <mxCell id="2" value="Home page" style="rounded=1;fillColor=#23445D;gradientColor=none;strokeColor=none;fontColor=#FFFFFF;fontStyle=1;fontFamily=Tahoma;fontSize=14" parent="1" vertex="1">
          <mxGeometry x="757" y="185.5" width="190" height="80" as="geometry" />
        </mxCell>
        <mxCell id="9" value="" style="edgeStyle=elbowEdgeStyle;elbow=vertical;strokeWidth=2;rounded=0" parent="1" source="2" edge="1">
          <mxGeometry x="337" y="215.5" width="100" height="100" as="geometry">
            <mxPoint x="337" y="315.5" as="sourcePoint" />
            <mxPoint x="1457" y="335.5" as="targetPoint" />
          </mxGeometry>
        </mxCell>
        <mxCell id="12" value="Research and &#xa;Development" style="rounded=1;fillColor=#23445D;gradientColor=none;strokeColor=none;fontColor=#FFFFFF;fontStyle=1;fontFamily=Tahoma;fontSize=14" parent="1" vertex="1">
          <mxGeometry x="1040" y="348" width="190" height="80" as="geometry" />
        </mxCell>
        <mxCell id="4MZ_cCC2QS6rHFRi-yMx-174" style="edgeStyle=orthogonalEdgeStyle;rounded=0;orthogonalLoop=1;jettySize=auto;html=1;exitX=0.5;exitY=1;exitDx=0;exitDy=0;entryX=0.5;entryY=0;entryDx=0;entryDy=0;" edge="1" parent="1" source="13" target="4MZ_cCC2QS6rHFRi-yMx-145">
          <mxGeometry relative="1" as="geometry" />
        </mxCell>
        <mxCell id="4MZ_cCC2QS6rHFRi-yMx-176" style="edgeStyle=orthogonalEdgeStyle;rounded=0;orthogonalLoop=1;jettySize=auto;html=1;exitX=0.5;exitY=1;exitDx=0;exitDy=0;" edge="1" parent="1" source="13">
          <mxGeometry relative="1" as="geometry">
            <mxPoint x="201.83333333333303" y="450.7777777777777" as="targetPoint" />
          </mxGeometry>
        </mxCell>
        <mxCell id="4MZ_cCC2QS6rHFRi-yMx-177" style="edgeStyle=orthogonalEdgeStyle;rounded=0;orthogonalLoop=1;jettySize=auto;html=1;exitX=0.5;exitY=1;exitDx=0;exitDy=0;entryX=0.5;entryY=0;entryDx=0;entryDy=0;" edge="1" parent="1" source="13" target="4MZ_cCC2QS6rHFRi-yMx-165">
          <mxGeometry relative="1" as="geometry" />
        </mxCell>
        <mxCell id="13" value="Product" style="rounded=1;fillColor=#23445D;gradientColor=none;strokeColor=none;fontColor=#FFFFFF;fontStyle=1;fontFamily=Tahoma;fontSize=14" parent="1" vertex="1">
          <mxGeometry x="107" y="335.5" width="190" height="80" as="geometry" />
        </mxCell>
        <mxCell id="15" value="EasyBuilder Pro" style="rounded=1;fillColor=#23445D;gradientColor=none;strokeColor=none;fontColor=#FFFFFF;fontStyle=1;fontFamily=Tahoma;fontSize=14" parent="1" vertex="1">
          <mxGeometry x="320.5" y="464" width="130" height="60" as="geometry" />
        </mxCell>
        <mxCell id="16" value="cMT Series" style="rounded=1;fillColor=#23445D;gradientColor=none;strokeColor=none;fontColor=#FFFFFF;fontStyle=0;fontFamily=Tahoma;fontSize=14" parent="1" vertex="1">
          <mxGeometry x="320.5" y="717.5" width="130" height="60" as="geometry" />
        </mxCell>
        <mxCell id="17" value="cMT XSeries" style="rounded=1;fillColor=#23445D;gradientColor=none;strokeColor=none;fontColor=#FFFFFF;fontStyle=0;fontFamily=Tahoma;fontSize=14" parent="1" vertex="1">
          <mxGeometry x="320.5" y="796" width="130" height="60" as="geometry" />
        </mxCell>
        <mxCell id="18" value="IE Series" style="rounded=1;fillColor=#23445D;gradientColor=none;strokeColor=none;fontColor=#FFFFFF;fontStyle=0;fontFamily=Tahoma;fontSize=14" parent="1" vertex="1">
          <mxGeometry x="320.5" y="874" width="130" height="60" as="geometry" />
        </mxCell>
        <mxCell id="25" value="SI" style="rounded=1;fillColor=#23445D;gradientColor=none;strokeColor=none;fontColor=#FFFFFF;fontStyle=1;fontFamily=Tahoma;fontSize=14" parent="1" vertex="1">
          <mxGeometry x="895" y="468" width="130" height="60" as="geometry" />
        </mxCell>
        <mxCell id="26" value="Programming" style="rounded=1;fillColor=#23445D;gradientColor=none;strokeColor=none;fontColor=#FFFFFF;fontStyle=1;fontFamily=Tahoma;fontSize=14" parent="1" vertex="1">
          <mxGeometry x="895" y="558" width="130" height="60" as="geometry" />
        </mxCell>
        <mxCell id="27" value="Client / Server" style="rounded=1;fillColor=#23445D;gradientColor=none;strokeColor=none;fontColor=#FFFFFF;fontStyle=1;fontFamily=Tahoma;fontSize=14" parent="1" vertex="1">
          <mxGeometry x="895" y="648" width="130" height="60" as="geometry" />
        </mxCell>
        <mxCell id="28" value="Data Collection" style="rounded=1;fillColor=#23445D;gradientColor=none;strokeColor=none;fontColor=#FFFFFF;fontStyle=1;fontFamily=Tahoma;fontSize=14" parent="1" vertex="1">
          <mxGeometry x="895" y="738" width="130" height="60" as="geometry" />
        </mxCell>
        <mxCell id="29" value="SSI" style="rounded=1;fillColor=#23445D;gradientColor=none;strokeColor=none;fontColor=#FFFFFF;fontStyle=1;fontFamily=Tahoma;fontSize=14" parent="1" vertex="1">
          <mxGeometry x="1070" y="468" width="130" height="60" as="geometry" />
        </mxCell>
        <mxCell id="30" value="Programming" style="rounded=1;fillColor=#23445D;gradientColor=none;strokeColor=none;fontColor=#FFFFFF;fontStyle=1;fontFamily=Tahoma;fontSize=14" parent="1" vertex="1">
          <mxGeometry x="1070" y="558" width="130" height="60" as="geometry" />
        </mxCell>
        <mxCell id="31" value="Client / Server" style="rounded=1;fillColor=#23445D;gradientColor=none;strokeColor=none;fontColor=#FFFFFF;fontStyle=1;fontFamily=Tahoma;fontSize=14" parent="1" vertex="1">
          <mxGeometry x="1070" y="648" width="130" height="60" as="geometry" />
        </mxCell>
        <mxCell id="32" value="Data Collection" style="rounded=1;fillColor=#23445D;gradientColor=none;strokeColor=none;fontColor=#FFFFFF;fontStyle=1;fontFamily=Tahoma;fontSize=14" parent="1" vertex="1">
          <mxGeometry x="1070" y="738" width="130" height="60" as="geometry" />
        </mxCell>
        <mxCell id="33" value="XMI" style="rounded=1;fillColor=#23445D;gradientColor=none;strokeColor=none;fontColor=#FFFFFF;fontStyle=1;fontFamily=Tahoma;fontSize=14" parent="1" vertex="1">
          <mxGeometry x="1245" y="468" width="130" height="60" as="geometry" />
        </mxCell>
        <mxCell id="34" value="Programming" style="rounded=1;fillColor=#23445D;gradientColor=none;strokeColor=none;fontColor=#FFFFFF;fontStyle=1;fontFamily=Tahoma;fontSize=14" parent="1" vertex="1">
          <mxGeometry x="1245" y="558" width="130" height="60" as="geometry" />
        </mxCell>
        <mxCell id="35" value="HTTP" style="rounded=1;fillColor=#23445D;gradientColor=none;strokeColor=none;fontColor=#FFFFFF;fontStyle=1;fontFamily=Tahoma;fontSize=14" parent="1" vertex="1">
          <mxGeometry x="1245" y="648" width="130" height="60" as="geometry" />
        </mxCell>
        <mxCell id="36" value="HTS" style="rounded=1;fillColor=#23445D;gradientColor=none;strokeColor=none;fontColor=#FFFFFF;fontStyle=1;fontFamily=Tahoma;fontSize=14" parent="1" vertex="1">
          <mxGeometry x="1245" y="738" width="130" height="60" as="geometry" />
        </mxCell>
        <mxCell id="37" value="CVS" style="rounded=1;fillColor=#23445D;gradientColor=none;strokeColor=none;fontColor=#FFFFFF;fontStyle=1;fontFamily=Tahoma;fontSize=14" parent="1" vertex="1">
          <mxGeometry x="1245" y="828" width="130" height="60" as="geometry" />
        </mxCell>
        <mxCell id="38" value="Client / Server" style="rounded=1;fillColor=#23445D;gradientColor=none;strokeColor=none;fontColor=#FFFFFF;fontStyle=1;fontFamily=Tahoma;fontSize=14" parent="1" vertex="1">
          <mxGeometry x="1245" y="918" width="130" height="60" as="geometry" />
        </mxCell>
        <mxCell id="39" value="Data Collection" style="rounded=1;fillColor=#23445D;gradientColor=none;strokeColor=none;fontColor=#FFFFFF;fontStyle=1;fontFamily=Tahoma;fontSize=14" parent="1" vertex="1">
          <mxGeometry x="1245" y="1008" width="130" height="60" as="geometry" />
        </mxCell>
        <mxCell id="59" value="" style="edgeStyle=elbowEdgeStyle;elbow=vertical;strokeWidth=2;rounded=0" parent="1" source="2" target="12" edge="1">
          <mxGeometry x="347" y="225.5" width="100" height="100" as="geometry">
            <mxPoint x="861.9999999999999" y="275.5" as="sourcePoint" />
            <mxPoint x="1466.9999999999998" y="345.5" as="targetPoint" />
          </mxGeometry>
        </mxCell>
        <mxCell id="61" value="" style="edgeStyle=elbowEdgeStyle;elbow=vertical;strokeWidth=2;rounded=0" parent="1" source="2" target="13" edge="1">
          <mxGeometry x="-23" y="135.5" width="100" height="100" as="geometry">
            <mxPoint x="-23" y="235.5" as="sourcePoint" />
            <mxPoint x="77" y="135.5" as="targetPoint" />
          </mxGeometry>
        </mxCell>
        <mxCell id="73" value="" style="edgeStyle=elbowEdgeStyle;elbow=horizontal;strokeWidth=2;rounded=0" parent="1" source="29" target="30" edge="1">
          <mxGeometry x="-23" y="135.5" width="100" height="100" as="geometry">
            <mxPoint x="455" y="248" as="sourcePoint" />
            <mxPoint x="555" y="148" as="targetPoint" />
            <Array as="points">
              <mxPoint x="1045" y="548" />
            </Array>
          </mxGeometry>
        </mxCell>
        <mxCell id="74" value="" style="edgeStyle=elbowEdgeStyle;elbow=horizontal;strokeWidth=2;rounded=0" parent="1" source="29" target="31" edge="1">
          <mxGeometry x="-23" y="135.5" width="100" height="100" as="geometry">
            <mxPoint x="455" y="248" as="sourcePoint" />
            <mxPoint x="555" y="148" as="targetPoint" />
            <Array as="points">
              <mxPoint x="1045" y="588" />
            </Array>
          </mxGeometry>
        </mxCell>
        <mxCell id="75" value="" style="edgeStyle=elbowEdgeStyle;elbow=horizontal;strokeWidth=2;rounded=0" parent="1" source="29" target="32" edge="1">
          <mxGeometry x="-23" y="135.5" width="100" height="100" as="geometry">
            <mxPoint x="455" y="248" as="sourcePoint" />
            <mxPoint x="555" y="148" as="targetPoint" />
            <Array as="points">
              <mxPoint x="1045" y="628" />
            </Array>
          </mxGeometry>
        </mxCell>
        <mxCell id="76" value="" style="edgeStyle=elbowEdgeStyle;elbow=horizontal;strokeWidth=2;rounded=0" parent="1" source="33" target="34" edge="1">
          <mxGeometry x="-23" y="135.5" width="100" height="100" as="geometry">
            <mxPoint x="455" y="248" as="sourcePoint" />
            <mxPoint x="555" y="148" as="targetPoint" />
            <Array as="points">
              <mxPoint x="1225" y="548" />
            </Array>
          </mxGeometry>
        </mxCell>
        <mxCell id="77" value="" style="edgeStyle=elbowEdgeStyle;elbow=horizontal;strokeWidth=2;rounded=0" parent="1" source="33" target="35" edge="1">
          <mxGeometry x="-23" y="135.5" width="100" height="100" as="geometry">
            <mxPoint x="455" y="248" as="sourcePoint" />
            <mxPoint x="555" y="148" as="targetPoint" />
            <Array as="points">
              <mxPoint x="1225" y="588" />
            </Array>
          </mxGeometry>
        </mxCell>
        <mxCell id="78" value="" style="edgeStyle=elbowEdgeStyle;elbow=horizontal;strokeWidth=2;rounded=0" parent="1" source="33" target="36" edge="1">
          <mxGeometry x="-23" y="135.5" width="100" height="100" as="geometry">
            <mxPoint x="455" y="248" as="sourcePoint" />
            <mxPoint x="555" y="148" as="targetPoint" />
            <Array as="points">
              <mxPoint x="1225" y="638" />
            </Array>
          </mxGeometry>
        </mxCell>
        <mxCell id="79" value="" style="edgeStyle=elbowEdgeStyle;elbow=horizontal;strokeWidth=2;rounded=0" parent="1" source="33" target="37" edge="1">
          <mxGeometry x="-23" y="135.5" width="100" height="100" as="geometry">
            <mxPoint x="455" y="248" as="sourcePoint" />
            <mxPoint x="555" y="148" as="targetPoint" />
            <Array as="points">
              <mxPoint x="1225" y="678" />
            </Array>
          </mxGeometry>
        </mxCell>
        <mxCell id="80" value="" style="edgeStyle=elbowEdgeStyle;elbow=horizontal;strokeWidth=2;rounded=0" parent="1" source="33" target="38" edge="1">
          <mxGeometry x="-23" y="135.5" width="100" height="100" as="geometry">
            <mxPoint x="455" y="248" as="sourcePoint" />
            <mxPoint x="555" y="148" as="targetPoint" />
            <Array as="points">
              <mxPoint x="1225" y="718" />
            </Array>
          </mxGeometry>
        </mxCell>
        <mxCell id="81" value="" style="edgeStyle=elbowEdgeStyle;elbow=horizontal;strokeWidth=2;rounded=0" parent="1" source="33" target="39" edge="1">
          <mxGeometry x="-23" y="135.5" width="100" height="100" as="geometry">
            <mxPoint x="455" y="248" as="sourcePoint" />
            <mxPoint x="555" y="148" as="targetPoint" />
            <Array as="points">
              <mxPoint x="1225" y="768" />
            </Array>
          </mxGeometry>
        </mxCell>
        <mxCell id="100" value="" style="edgeStyle=elbowEdgeStyle;elbow=vertical;strokeWidth=2;rounded=0" parent="1" source="12" target="25" edge="1">
          <mxGeometry x="-23" y="135.5" width="100" height="100" as="geometry">
            <mxPoint x="455" y="248" as="sourcePoint" />
            <mxPoint x="555" y="148" as="targetPoint" />
          </mxGeometry>
        </mxCell>
        <mxCell id="101" value="" style="edgeStyle=elbowEdgeStyle;elbow=vertical;strokeWidth=2;rounded=0" parent="1" source="12" target="29" edge="1">
          <mxGeometry x="-23" y="135.5" width="100" height="100" as="geometry">
            <mxPoint x="455" y="248" as="sourcePoint" />
            <mxPoint x="555" y="148" as="targetPoint" />
          </mxGeometry>
        </mxCell>
        <mxCell id="102" value="" style="edgeStyle=elbowEdgeStyle;elbow=vertical;strokeWidth=2;rounded=0" parent="1" source="12" target="33" edge="1">
          <mxGeometry x="-23" y="135.5" width="100" height="100" as="geometry">
            <mxPoint x="455" y="248" as="sourcePoint" />
            <mxPoint x="555" y="148" as="targetPoint" />
          </mxGeometry>
        </mxCell>
        <mxCell id="4MZ_cCC2QS6rHFRi-yMx-167" style="edgeStyle=orthogonalEdgeStyle;rounded=0;orthogonalLoop=1;jettySize=auto;html=1;exitX=1;exitY=0.5;exitDx=0;exitDy=0;entryX=0;entryY=0.5;entryDx=0;entryDy=0;" edge="1" parent="1" source="4MZ_cCC2QS6rHFRi-yMx-124" target="4MZ_cCC2QS6rHFRi-yMx-159">
          <mxGeometry relative="1" as="geometry" />
        </mxCell>
        <mxCell id="4MZ_cCC2QS6rHFRi-yMx-124" value="IO Module" style="rounded=1;fillColor=#23445D;gradientColor=none;strokeColor=none;fontColor=#FFFFFF;fontStyle=0;fontFamily=Tahoma;fontSize=14" vertex="1" parent="1">
          <mxGeometry x="135.5" y="539.5" width="130" height="60" as="geometry" />
        </mxCell>
        <mxCell id="4MZ_cCC2QS6rHFRi-yMx-129" value="iR&#xa;Couple" style="rounded=1;fillColor=#23445D;gradientColor=none;strokeColor=none;fontColor=#FFFFFF;fontStyle=0;fontFamily=Tahoma;fontSize=14" vertex="1" parent="1">
          <mxGeometry x="320.5" y="1080" width="130" height="60" as="geometry" />
        </mxCell>
        <mxCell id="4MZ_cCC2QS6rHFRi-yMx-132" value="Digital I/O &#xa;Modules" style="rounded=1;fillColor=#23445D;gradientColor=none;strokeColor=none;fontColor=#FFFFFF;fontStyle=0;fontFamily=Tahoma;fontSize=14" vertex="1" parent="1">
          <mxGeometry x="320.5" y="1150" width="130" height="60" as="geometry" />
        </mxCell>
        <mxCell id="4MZ_cCC2QS6rHFRi-yMx-134" value="Analog I/O&#xa;Modules" style="rounded=1;fillColor=#23445D;gradientColor=none;strokeColor=none;fontColor=#FFFFFF;fontStyle=0;fontFamily=Tahoma;fontSize=14" vertex="1" parent="1">
          <mxGeometry x="320.5" y="1221.5" width="130" height="60" as="geometry" />
        </mxCell>
        <mxCell id="4MZ_cCC2QS6rHFRi-yMx-173" style="edgeStyle=orthogonalEdgeStyle;rounded=0;orthogonalLoop=1;jettySize=auto;html=1;exitX=1;exitY=0.5;exitDx=0;exitDy=0;entryX=0;entryY=0.5;entryDx=0;entryDy=0;" edge="1" parent="1" source="4MZ_cCC2QS6rHFRi-yMx-136" target="4MZ_cCC2QS6rHFRi-yMx-168">
          <mxGeometry relative="1" as="geometry" />
        </mxCell>
        <mxCell id="4MZ_cCC2QS6rHFRi-yMx-136" value="Accessories" style="rounded=1;fillColor=#23445D;gradientColor=none;strokeColor=none;fontColor=#FFFFFF;fontStyle=0;fontFamily=Tahoma;fontSize=14" vertex="1" parent="1">
          <mxGeometry x="135.5" y="609.5" width="130" height="60" as="geometry" />
        </mxCell>
        <mxCell id="4MZ_cCC2QS6rHFRi-yMx-137" value="Weincloud" style="rounded=1;fillColor=#23445D;gradientColor=none;strokeColor=none;fontColor=#FFFFFF;fontStyle=1;fontFamily=Tahoma;fontSize=14" vertex="1" parent="1">
          <mxGeometry x="320.5" y="544" width="130" height="60" as="geometry" />
        </mxCell>
        <mxCell id="4MZ_cCC2QS6rHFRi-yMx-138" value="iP Series" style="rounded=1;fillColor=#23445D;gradientColor=none;strokeColor=none;fontColor=#FFFFFF;fontStyle=0;fontFamily=Tahoma;fontSize=14" vertex="1" parent="1">
          <mxGeometry x="320.5" y="955.5" width="130" height="60" as="geometry" />
        </mxCell>
        <mxCell id="4MZ_cCC2QS6rHFRi-yMx-145" value="" style="fillColor=#10739E;strokeColor=none;opacity=30;" vertex="1" parent="1">
          <mxGeometry x="-56.500000000000114" y="456.2500000000001" width="150" height="80" as="geometry" />
        </mxCell>
        <mxCell id="4MZ_cCC2QS6rHFRi-yMx-146" value="Overview" style="rounded=1;fillColor=#23445D;gradientColor=none;strokeColor=none;fontColor=#FFFFFF;fontStyle=0;fontFamily=Tahoma;fontSize=14" vertex="1" parent="1">
          <mxGeometry x="-46.5" y="466.25" width="130" height="60" as="geometry" />
        </mxCell>
        <mxCell id="4MZ_cCC2QS6rHFRi-yMx-148" value="" style="rounded=1;fillColor=#23445D;gradientColor=none;strokeColor=none;fontColor=#FFFFFF;fontStyle=0;fontFamily=Tahoma;fontSize=14" vertex="1" parent="1">
          <mxGeometry x="-135" y="1853" width="655" height="292" as="geometry" />
        </mxCell>
        <mxCell id="4MZ_cCC2QS6rHFRi-yMx-151" value="" style="rounded=1;fillColor=#fbdebb;gradientColor=none;strokeColor=none;fontColor=#FFFFFF;fontStyle=0;fontFamily=Tahoma;fontSize=14;glass=0;" vertex="1" parent="1">
          <mxGeometry x="-115" y="1870" width="178" height="292" as="geometry" />
        </mxCell>
        <mxCell id="4MZ_cCC2QS6rHFRi-yMx-152" value="" style="rounded=0;fillColor=#fbdebb;gradientColor=none;strokeColor=none;fontColor=#FFFFFF;fontStyle=0;fontFamily=Tahoma;fontSize=14;glass=0;" vertex="1" parent="1">
          <mxGeometry x="19" y="1857" width="178" height="292" as="geometry" />
        </mxCell>
        <mxCell id="4MZ_cCC2QS6rHFRi-yMx-156" value="Motion Control" style="rounded=1;fillColor=#23445D;gradientColor=none;strokeColor=none;fontColor=#FFFFFF;fontStyle=0;fontFamily=Tahoma;fontSize=14" vertex="1" parent="1">
          <mxGeometry x="320.5" y="1294" width="130" height="60" as="geometry" />
        </mxCell>
        <mxCell id="4MZ_cCC2QS6rHFRi-yMx-166" style="edgeStyle=orthogonalEdgeStyle;rounded=0;orthogonalLoop=1;jettySize=auto;html=1;exitX=1;exitY=0.5;exitDx=0;exitDy=0;entryX=0;entryY=0.5;entryDx=0;entryDy=0;" edge="1" parent="1" source="4MZ_cCC2QS6rHFRi-yMx-164" target="118">
          <mxGeometry relative="1" as="geometry" />
        </mxCell>
        <mxCell id="4MZ_cCC2QS6rHFRi-yMx-164" value="HMIs" style="rounded=1;fillColor=#23445D;gradientColor=none;strokeColor=none;fontColor=#FFFFFF;fontStyle=0;fontFamily=Tahoma;fontSize=14" vertex="1" parent="1">
          <mxGeometry x="135.5" y="468" width="130" height="60" as="geometry" />
        </mxCell>
        <mxCell id="4MZ_cCC2QS6rHFRi-yMx-168" value="" style="fillColor=#F2931E;strokeColor=none;opacity=30;" vertex="1" parent="1">
          <mxGeometry x="310.5" y="1400" width="150" height="87" as="geometry" />
        </mxCell>
        <mxCell id="4MZ_cCC2QS6rHFRi-yMx-169" value="M02" style="rounded=1;fillColor=#23445D;gradientColor=none;strokeColor=none;fontColor=#FFFFFF;fontStyle=0;fontFamily=Tahoma;fontSize=14" vertex="1" parent="1">
          <mxGeometry x="320.5" y="1415" width="130" height="60" as="geometry" />
        </mxCell>
      </root>
    </mxGraphModel>
  </diagram>
</mxfile>
